# xmcd
#
# Track frame offsets: 
#        150
#        16070
#        47565
#        61565
#        71000
#        86103
#        97985
#        112091
#        132187
#        146300
#        169509
#        193109
#
# Disc length: 2695 seconds
#
# Revision: 17
# Processed by: cddbd v1.5.2PL0 Copyright (c) Steve Scherf et al.
# Submitted via: ExactAudioCopy v0.99pb4
#
DISCID=980a850c
DTITLE=Various Artist - Best Of Blues (3 of 3)
DYEAR=2000
DGENRE=Blues
TTITLE0=Memphis Slim - 44 Blues 
TTITLE1=Cannonball Adderly - Cannon's Blues 
TTITLE2=Charles Brown - Black Night
TTITLE3=Canned Heat - Big Road Blues
TTITLE4=Pee Wee Crayton - Blues After Hours
TTITLE5=Bo Diddley - Walkin' and Talkin'
TTITLE6=Dr. John - Loser For You Baby
TTITLE7=Buddy Guy and Junior Wells - Every Day I Have The Blues
TTITLE8=Billie Holiday - Billie's Blues
TTITLE9=Lightnin' Hopkins - Last Night
TTITLE10=B.B. King (Live) - You've Done Lost Your Good Thing Now
TTITLE11=Big Maybelle - Put Yourself In My Place
EXTD=
EXTT0=
EXTT1=
EXTT2=
EXTT3=
EXTT4=
EXTT5=
EXTT6=
EXTT7=
EXTT8=
EXTT9=
EXTT10=
EXTT11=
PLAYORDER=
